<svg width="237" height="92" viewBox="0 0 237 92" fill="none" xmlns="http://www.w3.org/2000/svg">
<g style="mix-blend-mode:luminosity">
<path d="M192.95 3.19668C205.009 3.19668 215.365 7.52996 224.019 16.1965C232.673 24.8631 237 35.2345 237 47.3109C237 59.2452 232.673 69.5456 224.019 78.2121C215.365 86.8787 205.009 91.212 192.95 91.212C180.892 91.212 170.535 86.8787 161.882 78.2121C153.228 69.5456 148.901 59.2451 148.901 47.3109C148.901 35.2345 153.228 24.8631 161.882 16.1965C170.535 7.52996 180.892 3.19668 192.95 3.19668ZM-9.3697e-06 57.3271L-6.86385e-06 -1.03596e-05L123.424 12.1474L123.424 81.835L-9.3697e-06 57.3271Z" fill="white"/>
</g>
</svg>
