<svg width="246" height="57" viewBox="0 0 246 57" fill="none" xmlns="http://www.w3.org/2000/svg">
<path d="M107.244 13.3037C107.244 13.1342 107.284 13.0048 107.365 12.9156C107.445 12.8174 107.561 12.7684 107.713 12.7684C107.864 12.7684 107.98 12.7238 108.061 12.6345C108.141 12.5364 108.181 12.4026 108.181 12.2331V6.11735C108.181 5.94784 108.141 5.81848 108.061 5.72926C107.98 5.63112 107.864 5.58206 107.713 5.58206C107.561 5.58206 107.445 5.53745 107.365 5.44823C107.284 5.35009 107.244 5.21627 107.244 5.04676V4.89956C107.244 4.54269 107.423 4.36426 107.78 4.36426H109.814C110.17 4.36426 110.349 4.54269 110.349 4.89956V5.04676C110.349 5.40362 110.193 5.58206 109.881 5.58206C109.729 5.58206 109.608 5.63112 109.519 5.72926C109.439 5.81848 109.399 5.94784 109.399 6.11735V12.2331C109.399 12.4026 109.439 12.5364 109.519 12.6345C109.608 12.7238 109.729 12.7684 109.881 12.7684C110.032 12.7684 110.148 12.8174 110.228 12.9156C110.309 13.0048 110.349 13.1342 110.349 13.3037V13.4509C110.349 13.8077 110.17 13.9862 109.814 13.9862H107.78C107.423 13.9862 107.244 13.8077 107.244 13.4509V13.3037ZM115.909 7.49573C115.552 7.49573 115.373 7.3173 115.373 6.96044V5.90323C115.373 5.54637 115.195 5.36794 114.838 5.36794H113.045C112.688 5.36794 112.51 5.54637 112.51 5.90323V8.03102C112.51 8.38789 112.688 8.56632 113.045 8.56632H115.24C115.498 8.56632 115.717 8.65553 115.895 8.83396L116.324 9.2622C116.502 9.44063 116.591 9.65921 116.591 9.91793V12.6212C116.591 12.8799 116.502 13.1029 116.324 13.2903L115.895 13.7185C115.717 13.8969 115.498 13.9862 115.24 13.9862H112.657C112.398 13.9862 112.18 13.8969 112.001 13.7185L111.559 13.2769C111.381 13.0985 111.292 12.8799 111.292 12.6212V11.3097C111.292 10.9528 111.47 10.7744 111.827 10.7744H111.974C112.331 10.7744 112.51 10.9528 112.51 11.3097V12.2331C112.51 12.5899 112.688 12.7684 113.045 12.7684H114.838C115.195 12.7684 115.373 12.5899 115.373 12.2331V10.306C115.373 9.94916 115.195 9.77073 114.838 9.77073H112.657C112.389 9.77073 112.166 9.68151 111.988 9.50308L111.559 9.07485C111.381 8.89641 111.292 8.67784 111.292 8.41911V5.51514C111.292 5.25642 111.381 5.03338 111.559 4.84603L111.988 4.41779C112.166 4.23936 112.385 4.15015 112.643 4.15015H115.24C115.498 4.15015 115.717 4.24382 115.895 4.43117L116.324 4.85941C116.502 5.03784 116.591 5.25642 116.591 5.51514V6.96044C116.591 7.3173 116.413 7.49573 116.056 7.49573H115.909ZM122.548 7.49573C122.191 7.49573 122.012 7.3173 122.012 6.96044V5.90323C122.012 5.54637 121.834 5.36794 121.477 5.36794H119.684C119.327 5.36794 119.149 5.54637 119.149 5.90323V8.03102C119.149 8.38789 119.327 8.56632 119.684 8.56632H121.879C122.137 8.56632 122.356 8.65553 122.534 8.83396L122.962 9.2622C123.141 9.44063 123.23 9.65921 123.23 9.91793V12.6212C123.23 12.8799 123.141 13.1029 122.962 13.2903L122.534 13.7185C122.356 13.8969 122.137 13.9862 121.879 13.9862H119.296C119.037 13.9862 118.818 13.8969 118.64 13.7185L118.198 13.2769C118.02 13.0985 117.931 12.8799 117.931 12.6212V11.3097C117.931 10.9528 118.109 10.7744 118.466 10.7744H118.613C118.97 10.7744 119.149 10.9528 119.149 11.3097V12.2331C119.149 12.5899 119.327 12.7684 119.684 12.7684H121.477C121.834 12.7684 122.012 12.5899 122.012 12.2331V10.306C122.012 9.94916 121.834 9.77073 121.477 9.77073H119.296C119.028 9.77073 118.805 9.68151 118.627 9.50308L118.198 9.07485C118.02 8.89641 117.931 8.67784 117.931 8.41911V5.51514C117.931 5.25642 118.02 5.03338 118.198 4.84603L118.627 4.41779C118.805 4.23936 119.024 4.15015 119.282 4.15015H121.879C122.137 4.15015 122.356 4.24382 122.534 4.43117L122.962 4.85941C123.141 5.03784 123.23 5.25642 123.23 5.51514V6.96044C123.23 7.3173 123.052 7.49573 122.695 7.49573H122.548ZM112.263 21.0979C111.906 21.0979 111.727 20.9195 111.727 20.5626V19.1173C111.727 18.7605 111.549 18.5821 111.192 18.5821H109.399C109.042 18.5821 108.863 18.7605 108.863 19.1173V25.2331C108.863 25.5899 109.042 25.7684 109.399 25.7684H111.192C111.549 25.7684 111.727 25.5899 111.727 25.2331V23.9216C111.727 23.5647 111.906 23.3863 112.263 23.3863H112.41C112.767 23.3863 112.945 23.5647 112.945 23.9216V25.6212C112.945 25.8799 112.856 26.0985 112.677 26.2769L112.236 26.7185C112.057 26.8969 111.839 26.9862 111.58 26.9862H109.011C108.752 26.9862 108.533 26.8969 108.355 26.7185L107.913 26.2769C107.735 26.0985 107.646 25.8799 107.646 25.6212V18.7293C107.646 18.4705 107.735 18.252 107.913 18.0735L108.355 17.6319C108.533 17.4535 108.752 17.3643 109.011 17.3643H111.58C111.839 17.3643 112.057 17.4535 112.236 17.6319L112.677 18.0735C112.856 18.252 112.945 18.4705 112.945 18.7293V20.5626C112.945 20.9195 112.767 21.0979 112.41 21.0979H112.263ZM118.393 21.0712C118.571 21.2585 118.661 21.4816 118.661 21.7403V25.6212C118.661 25.8799 118.571 26.1029 118.393 26.2903L117.965 26.7185C117.786 26.8969 117.568 26.9862 117.309 26.9862H115.65C115.391 26.9862 115.172 26.8969 114.994 26.7185L114.552 26.2769C114.374 26.0985 114.285 25.8799 114.285 25.6212V21.7403C114.285 21.4816 114.374 21.263 114.552 21.0846L114.994 20.6429C115.172 20.4645 115.391 20.3753 115.65 20.3753H117.309C117.568 20.3753 117.786 20.4645 117.965 20.6429L118.393 21.0712ZM117.443 22.1284C117.443 21.7715 117.264 21.5931 116.908 21.5931H116.038C115.681 21.5931 115.502 21.7715 115.502 22.1284V25.2331C115.502 25.5899 115.681 25.7684 116.038 25.7684H116.908C117.264 25.7684 117.443 25.5899 117.443 25.2331V22.1284ZM121.334 26.4375C121.334 26.7944 121.155 26.9728 120.799 26.9728H120.665C120.308 26.9728 120.129 26.7944 120.129 26.4375V21.7403C120.129 21.4726 120.219 21.2496 120.397 21.0712L120.825 20.6429C121.004 20.4645 121.222 20.3753 121.481 20.3753H122.324C122.458 20.3753 122.574 20.3976 122.672 20.4422C122.779 20.4868 122.882 20.5582 122.98 20.6563C123.096 20.7723 123.212 20.8303 123.328 20.8303C123.426 20.8303 123.524 20.7812 123.622 20.6831L123.649 20.6563C123.747 20.5582 123.845 20.4868 123.943 20.4422C124.05 20.3976 124.171 20.3753 124.305 20.3753H125.094C125.228 20.3753 125.344 20.3976 125.442 20.4422C125.549 20.4868 125.652 20.5582 125.75 20.6563L126.178 21.0846C126.357 21.263 126.446 21.4816 126.446 21.7403V26.4375C126.446 26.7944 126.267 26.9728 125.911 26.9728H125.777C125.42 26.9728 125.241 26.7944 125.241 26.4375V22.1284C125.241 21.7715 125.063 21.5931 124.706 21.5931H124.452C124.095 21.5931 123.917 21.7715 123.917 22.1284V26.4375C123.917 26.7944 123.738 26.9728 123.381 26.9728H123.247C122.891 26.9728 122.712 26.7944 122.712 26.4375V22.1284C122.712 21.7715 122.534 21.5931 122.177 21.5931H121.869C121.512 21.5931 121.334 21.7715 121.334 22.1284V26.4375ZM129.253 26.4375C129.253 26.7944 129.075 26.9728 128.718 26.9728H128.584C128.227 26.9728 128.049 26.7944 128.049 26.4375V21.7403C128.049 21.4726 128.138 21.2496 128.317 21.0712L128.745 20.6429C128.923 20.4645 129.142 20.3753 129.401 20.3753H130.244C130.378 20.3753 130.494 20.3976 130.592 20.4422C130.699 20.4868 130.801 20.5582 130.899 20.6563C131.015 20.7723 131.131 20.8303 131.247 20.8303C131.346 20.8303 131.444 20.7812 131.542 20.6831L131.569 20.6563C131.667 20.5582 131.765 20.4868 131.863 20.4422C131.97 20.3976 132.091 20.3753 132.224 20.3753H133.014C133.148 20.3753 133.264 20.3976 133.362 20.4422C133.469 20.4868 133.571 20.5582 133.67 20.6563L134.098 21.0846C134.276 21.263 134.366 21.4816 134.366 21.7403V26.4375C134.366 26.7944 134.187 26.9728 133.83 26.9728H133.696C133.34 26.9728 133.161 26.7944 133.161 26.4375V22.1284C133.161 21.7715 132.983 21.5931 132.626 21.5931H132.372C132.015 21.5931 131.836 21.7715 131.836 22.1284V26.4375C131.836 26.7944 131.658 26.9728 131.301 26.9728H131.167C130.81 26.9728 130.632 26.7944 130.632 26.4375V22.1284C130.632 21.7715 130.453 21.5931 130.097 21.5931H129.789C129.432 21.5931 129.253 21.7715 129.253 22.1284V26.4375ZM139.114 20.9106C139.114 20.5537 139.292 20.3753 139.649 20.3753H139.796C140.153 20.3753 140.331 20.5537 140.331 20.9106V25.6212C140.331 25.8799 140.242 26.1029 140.064 26.2903L139.635 26.7185C139.457 26.8969 139.238 26.9862 138.98 26.9862H137.334C137.075 26.9862 136.856 26.8969 136.678 26.7185L136.236 26.2769C136.058 26.0985 135.969 25.8799 135.969 25.6212V20.9106C135.969 20.5537 136.147 20.3753 136.504 20.3753H136.651C137.008 20.3753 137.186 20.5537 137.186 20.9106V25.2331C137.186 25.5899 137.365 25.7684 137.722 25.7684H138.578C138.935 25.7684 139.114 25.5899 139.114 25.2331V20.9106ZM143.159 26.4643C143.159 26.8211 142.98 26.9995 142.624 26.9995H142.476C142.119 26.9995 141.941 26.8211 141.941 26.4643V21.7403C141.941 21.4816 142.03 21.263 142.209 21.0846L142.65 20.6429C142.829 20.4645 143.047 20.3753 143.306 20.3753H144.965C145.224 20.3753 145.443 20.469 145.621 20.6563L146.049 21.0846C146.228 21.263 146.317 21.4816 146.317 21.7403V26.4643C146.317 26.8211 146.139 26.9995 145.782 26.9995H145.648C145.291 26.9995 145.113 26.8211 145.113 26.4643V22.1284C145.113 21.7715 144.934 21.5931 144.577 21.5931H143.694C143.337 21.5931 143.159 21.7715 143.159 22.1284V26.4643ZM148.127 18.6088C148.261 18.475 148.399 18.4081 148.542 18.4081C148.685 18.4081 148.823 18.475 148.957 18.6088C149.091 18.7426 149.158 18.8809 149.158 19.0237C149.158 19.1664 149.091 19.3047 148.957 19.4385C148.823 19.5723 148.685 19.6393 148.542 19.6393C148.399 19.6393 148.261 19.5723 148.127 19.4385C147.993 19.3047 147.927 19.1664 147.927 19.0237C147.927 18.8809 147.993 18.7426 148.127 18.6088ZM147.94 20.9106C147.94 20.5537 148.118 20.3753 148.475 20.3753H148.609C148.966 20.3753 149.144 20.5537 149.144 20.9106V26.4509C149.144 26.8077 148.966 26.9862 148.609 26.9862H148.475C148.118 26.9862 147.94 26.8077 147.94 26.4509V20.9106ZM153.707 25.7684C154.063 25.7684 154.242 25.9468 154.242 26.3037V26.4509C154.242 26.8077 154.063 26.9862 153.707 26.9862H152.783C152.524 26.9862 152.306 26.8969 152.127 26.7185L151.686 26.2769C151.507 26.0985 151.418 25.8799 151.418 25.6212V22.115C151.418 21.9455 151.374 21.8161 151.284 21.7269C151.195 21.6288 151.066 21.5797 150.896 21.5797C150.539 21.5797 150.361 21.4013 150.361 21.0444V20.9106C150.361 20.7411 150.406 20.6117 150.495 20.5225C150.593 20.4244 150.727 20.3753 150.896 20.3753C151.066 20.3753 151.195 20.3307 151.284 20.2415C151.374 20.1433 151.418 20.0095 151.418 19.84V19.3582C151.418 19.0014 151.597 18.8229 151.953 18.8229H152.101C152.458 18.8229 152.636 19.0014 152.636 19.3582V19.84C152.636 20.1969 152.814 20.3753 153.171 20.3753H153.707C154.063 20.3753 154.242 20.5537 154.242 20.9106V21.0444C154.242 21.4013 154.063 21.5797 153.707 21.5797H153.171C152.814 21.5797 152.636 21.7581 152.636 22.115V25.2331C152.636 25.5899 152.814 25.7684 153.171 25.7684H153.707ZM157.652 23.6272C158.009 23.6272 158.188 23.4488 158.188 23.0919V20.9106C158.188 20.5537 158.366 20.3753 158.723 20.3753H158.87C159.227 20.3753 159.405 20.5537 159.405 20.9106V26.8256C159.405 27.0843 159.316 27.3029 159.138 27.4813L158.696 27.9229C158.518 28.1014 158.299 28.1906 158.04 28.1906H155.698C155.342 28.1906 155.163 28.0121 155.163 27.6553V27.5081C155.163 27.1512 155.342 26.9728 155.698 26.9728H157.652C158.009 26.9728 158.188 26.7944 158.188 26.4375V25.3803C158.188 25.0234 158.009 24.845 157.652 24.845H156.408C156.149 24.845 155.93 24.7558 155.752 24.5773L155.31 24.1357C155.132 23.9573 155.043 23.7387 155.043 23.48V20.9106C155.043 20.5537 155.221 20.3753 155.578 20.3753H155.725C156.082 20.3753 156.26 20.5537 156.26 20.9106V23.0919C156.26 23.4488 156.439 23.6272 156.796 23.6272H157.652ZM113.025 39.9862C112.713 39.9862 112.521 39.8256 112.45 39.5044L112.115 37.8985C112.044 37.5773 111.852 37.4168 111.54 37.4168H109.519C109.207 37.4168 109.015 37.5773 108.944 37.8985L108.609 39.5044C108.538 39.8256 108.346 39.9862 108.034 39.9862H107.873C107.713 39.9862 107.588 39.946 107.498 39.8657C107.418 39.7854 107.378 39.6784 107.378 39.5445C107.378 39.4821 107.382 39.433 107.391 39.3973L109.091 30.8594C109.162 30.5382 109.354 30.3776 109.666 30.3776H111.353C111.665 30.3776 111.857 30.5382 111.928 30.8594L113.668 39.3973C113.677 39.433 113.681 39.4866 113.681 39.5579C113.681 39.8434 113.516 39.9862 113.186 39.9862H113.025ZM110.509 31.5954C110.313 31.5954 110.179 31.756 110.108 32.0772L109.399 35.6235C109.39 35.6592 109.385 35.7083 109.385 35.7707C109.385 35.9046 109.426 36.0116 109.506 36.0919C109.595 36.1722 109.72 36.2123 109.881 36.2123H111.165C111.495 36.2123 111.66 36.0696 111.66 35.7841C111.66 35.7127 111.656 35.6592 111.647 35.6235L110.911 32.0772C110.84 31.756 110.706 31.5954 110.509 31.5954ZM116.107 39.4643C116.107 39.8211 115.928 39.9995 115.571 39.9995H115.424C115.067 39.9995 114.889 39.8211 114.889 39.4643V34.7403C114.889 34.4816 114.978 34.263 115.157 34.0846L115.598 33.6429C115.777 33.4645 115.995 33.3753 116.254 33.3753H117.913C118.172 33.3753 118.391 33.469 118.569 33.6563L118.997 34.0846C119.176 34.263 119.265 34.4816 119.265 34.7403V39.4643C119.265 39.8211 119.086 39.9995 118.73 39.9995H118.596C118.239 39.9995 118.06 39.8211 118.06 39.4643V35.1284C118.06 34.7715 117.882 34.5931 117.525 34.5931H116.642C116.285 34.5931 116.107 34.7715 116.107 35.1284V39.4643ZM122.092 39.4643C122.092 39.8211 121.914 39.9995 121.557 39.9995H121.41C121.053 39.9995 120.874 39.8211 120.874 39.4643V34.7403C120.874 34.4816 120.964 34.263 121.142 34.0846L121.584 33.6429C121.762 33.4645 121.981 33.3753 122.239 33.3753H123.899C124.157 33.3753 124.376 33.469 124.554 33.6563L124.983 34.0846C125.161 34.263 125.25 34.4816 125.25 34.7403V39.4643C125.25 39.8211 125.072 39.9995 124.715 39.9995H124.581C124.224 39.9995 124.046 39.8211 124.046 39.4643V35.1284C124.046 34.7715 123.868 34.5931 123.511 34.5931H122.627C122.271 34.5931 122.092 34.7715 122.092 35.1284V39.4643ZM130.005 33.9106C130.005 33.5537 130.183 33.3753 130.54 33.3753H130.687C131.044 33.3753 131.222 33.5537 131.222 33.9106V38.6212C131.222 38.8799 131.133 39.1029 130.955 39.2903L130.527 39.7185C130.348 39.8969 130.13 39.9862 129.871 39.9862H128.225C127.966 39.9862 127.747 39.8969 127.569 39.7185L127.127 39.2769C126.949 39.0985 126.86 38.8799 126.86 38.6212V33.9106C126.86 33.5537 127.038 33.3753 127.395 33.3753H127.542C127.899 33.3753 128.078 33.5537 128.078 33.9106V38.2331C128.078 38.5899 128.256 38.7684 128.613 38.7684H129.469C129.826 38.7684 130.005 38.5899 130.005 38.2331V33.9106ZM134.063 39.9728C133.805 39.9728 133.586 39.8836 133.408 39.7051L132.966 39.2635C132.788 39.0851 132.698 38.8665 132.698 38.6078V37.0554C132.698 36.9216 132.721 36.8056 132.765 36.7075C132.81 36.6004 132.881 36.4978 132.979 36.3997L133.408 35.9715C133.586 35.793 133.805 35.7038 134.063 35.7038H135.335C135.692 35.7038 135.87 35.5254 135.87 35.1685V35.1284C135.87 34.7715 135.692 34.5931 135.335 34.5931H133.274C132.917 34.5931 132.739 34.4147 132.739 34.0578V33.9106C132.739 33.5537 132.917 33.3753 133.274 33.3753H135.723C135.981 33.3753 136.2 33.4645 136.378 33.6429L136.82 34.0846C136.999 34.263 137.088 34.4816 137.088 34.7403V39.4375C137.088 39.7944 136.909 39.9728 136.552 39.9728H134.063ZM135.87 37.3365C135.87 36.9796 135.692 36.8012 135.335 36.8012H134.451C134.095 36.8012 133.916 36.9796 133.916 37.3365V38.3401C133.916 38.697 134.095 38.8754 134.451 38.8754H135.335C135.692 38.8754 135.87 38.697 135.87 38.3401V37.3365ZM138.566 30.8996C138.566 30.5427 138.745 30.3643 139.101 30.3643H139.235C139.592 30.3643 139.771 30.5427 139.771 30.8996V39.4509C139.771 39.8077 139.592 39.9862 139.235 39.9862H139.101C138.745 39.9862 138.566 39.8077 138.566 39.4509V30.8996ZM108.863 52.4509C108.863 52.8077 108.685 52.9862 108.328 52.9862H108.181C107.824 52.9862 107.646 52.8077 107.646 52.4509V43.8996C107.646 43.5427 107.824 43.3643 108.181 43.3643H108.449C108.743 43.3643 108.948 43.4981 109.064 43.7657L111.219 48.7306C111.263 48.8287 111.317 48.909 111.379 48.9715C111.451 49.025 111.518 49.0518 111.58 49.0518C111.66 49.0518 111.723 49.0161 111.767 48.9447C111.821 48.8644 111.848 48.7529 111.848 48.6101V43.8996C111.848 43.5427 112.026 43.3643 112.383 43.3643H112.53C112.887 43.3643 113.066 43.5427 113.066 43.8996V52.4509C113.066 52.8077 112.887 52.9862 112.53 52.9862H112.383C112.089 52.9862 111.883 52.8523 111.767 52.5847L109.492 47.379C109.403 47.1648 109.287 47.0578 109.145 47.0578C109.064 47.0578 108.997 47.0979 108.944 47.1782C108.89 47.2585 108.863 47.37 108.863 47.5128V52.4509ZM118.751 49.9618C118.751 50.3186 118.573 50.497 118.216 50.497H116.155C115.798 50.497 115.62 50.6755 115.62 51.0323V51.2197C115.62 51.5766 115.798 51.755 116.155 51.755H118.216C118.573 51.755 118.751 51.9334 118.751 52.2903V52.4375C118.751 52.7944 118.573 52.9728 118.216 52.9728H115.754C115.495 52.9728 115.277 52.8791 115.098 52.6918L114.67 52.2635C114.491 52.0851 114.402 51.8665 114.402 51.6078V47.7269C114.402 47.4682 114.491 47.2496 114.67 47.0712L115.098 46.6429C115.277 46.4645 115.495 46.3753 115.754 46.3753H117.4C117.659 46.3753 117.877 46.4645 118.056 46.6429L118.484 47.0712C118.662 47.2496 118.751 47.4682 118.751 47.7269V49.9618ZM115.62 48.8912C115.62 49.248 115.798 49.4265 116.155 49.4265H116.998C117.355 49.4265 117.534 49.248 117.534 48.8912V48.115C117.534 47.7581 117.355 47.5797 116.998 47.5797H116.155C115.798 47.5797 115.62 47.7581 115.62 48.115V48.8912ZM123.607 47.4057C123.928 47.4057 124.12 47.5663 124.182 47.8875L124.865 51.3268C124.936 51.6479 124.976 51.8085 124.985 51.8085H124.998L125.882 46.8571C125.935 46.5359 126.127 46.3753 126.457 46.3753H126.604C126.765 46.3753 126.885 46.4154 126.966 46.4957C127.055 46.576 127.099 46.6831 127.099 46.8169C127.099 46.8794 127.095 46.9284 127.086 46.9641L125.989 52.5312C125.917 52.8523 125.725 53.0129 125.413 53.0129H124.57C124.24 53.0129 124.048 52.8479 123.995 52.5178L123.647 50.2294C123.611 49.9796 123.558 49.8547 123.486 49.8547C123.424 49.8547 123.37 49.9751 123.326 50.216L122.978 52.5178C122.924 52.8479 122.732 53.0129 122.402 53.0129H121.546C121.233 53.0129 121.042 52.8523 120.97 52.5312L119.833 46.9641C119.824 46.9284 119.819 46.8749 119.819 46.8035C119.819 46.518 119.984 46.3753 120.315 46.3753H120.462C120.801 46.3753 120.997 46.5359 121.051 46.8571L121.854 51.3268C121.88 51.4695 121.903 51.581 121.92 51.6613C121.938 51.7416 121.956 51.7907 121.974 51.8085H122.001L122.737 47.8875C122.79 47.5663 122.987 47.4057 123.326 47.4057H123.607ZM131.844 48.289C131.674 48.289 131.54 48.2577 131.442 48.1953C131.353 48.1328 131.308 48.0436 131.308 47.9276C131.308 47.8206 131.259 47.7358 131.161 47.6734C131.072 47.6109 130.943 47.5797 130.773 47.5797H129.917C129.56 47.5797 129.381 47.7581 129.381 48.115V48.6637C129.381 49.0205 129.56 49.199 129.917 49.199H131.161C131.42 49.199 131.638 49.2882 131.817 49.4666L132.259 49.9082C132.437 50.0867 132.526 50.3052 132.526 50.564V51.6212C132.526 51.8799 132.437 52.0985 132.259 52.2769L131.817 52.7185C131.638 52.8969 131.42 52.9862 131.161 52.9862H129.529C129.27 52.9862 129.051 52.8969 128.873 52.7185L128.431 52.2769C128.253 52.0985 128.164 51.8799 128.164 51.6212V51.6078C128.164 51.2509 128.342 51.0725 128.699 51.0725H128.846C129.016 51.0725 129.145 51.1037 129.234 51.1662C129.332 51.2286 129.381 51.3134 129.381 51.4204C129.381 51.5275 129.426 51.6122 129.515 51.6747C129.613 51.7371 129.747 51.7684 129.917 51.7684H130.773C131.13 51.7684 131.308 51.5899 131.308 51.2331V50.8316C131.308 50.4747 131.13 50.2963 130.773 50.2963H129.515C129.381 50.2963 129.265 50.2785 129.167 50.2428C129.069 50.1982 128.966 50.1313 128.859 50.042L128.458 49.6941C128.351 49.6049 128.275 49.5112 128.23 49.4131C128.186 49.306 128.164 49.1811 128.164 49.0384V47.7269C128.164 47.5931 128.186 47.4771 128.23 47.379C128.275 47.2719 128.346 47.1693 128.445 47.0712L128.873 46.6429C129.051 46.4645 129.27 46.3753 129.529 46.3753H131.161C131.429 46.3753 131.652 46.4645 131.83 46.6429L132.259 47.0712C132.437 47.2496 132.526 47.4682 132.526 47.7269V47.7537C132.526 48.1105 132.348 48.289 131.991 48.289H131.844ZM133.861 43.8996C133.861 43.5427 134.04 43.3643 134.397 43.3643H134.531C134.887 43.3643 135.066 43.5427 135.066 43.8996V52.4509C135.066 52.8077 134.887 52.9862 134.531 52.9862H134.397C134.04 52.9862 133.861 52.8077 133.861 52.4509V43.8996ZM140.759 49.9618C140.759 50.3186 140.581 50.497 140.224 50.497H138.163C137.806 50.497 137.628 50.6755 137.628 51.0323V51.2197C137.628 51.5766 137.806 51.755 138.163 51.755H140.224C140.581 51.755 140.759 51.9334 140.759 52.2903V52.4375C140.759 52.7944 140.581 52.9728 140.224 52.9728H137.761C137.503 52.9728 137.284 52.8791 137.106 52.6918L136.678 52.2635C136.499 52.0851 136.41 51.8665 136.41 51.6078V47.7269C136.41 47.4682 136.499 47.2496 136.678 47.0712L137.106 46.6429C137.284 46.4645 137.503 46.3753 137.761 46.3753H139.408C139.666 46.3753 139.885 46.4645 140.063 46.6429L140.491 47.0712C140.67 47.2496 140.759 47.4682 140.759 47.7269V49.9618ZM137.628 48.8912C137.628 49.248 137.806 49.4265 138.163 49.4265H139.006C139.363 49.4265 139.541 49.248 139.541 48.8912V48.115C139.541 47.7581 139.363 47.5797 139.006 47.5797H138.163C137.806 47.5797 137.628 47.7581 137.628 48.115V48.8912ZM145.173 51.7684C145.53 51.7684 145.708 51.9468 145.708 52.3037V52.4509C145.708 52.8077 145.53 52.9862 145.173 52.9862H144.249C143.991 52.9862 143.772 52.8969 143.594 52.7185L143.152 52.2769C142.974 52.0985 142.884 51.8799 142.884 51.6212V48.115C142.884 47.9455 142.84 47.8161 142.75 47.7269C142.661 47.6288 142.532 47.5797 142.362 47.5797C142.006 47.5797 141.827 47.4013 141.827 47.0444V46.9106C141.827 46.7411 141.872 46.6117 141.961 46.5225C142.059 46.4244 142.193 46.3753 142.362 46.3753C142.532 46.3753 142.661 46.3307 142.75 46.2415C142.84 46.1433 142.884 46.0095 142.884 45.84V45.3582C142.884 45.0014 143.063 44.8229 143.42 44.8229H143.567C143.924 44.8229 144.102 45.0014 144.102 45.3582V45.84C144.102 46.1969 144.281 46.3753 144.637 46.3753H145.173C145.53 46.3753 145.708 46.5537 145.708 46.9106V47.0444C145.708 47.4013 145.53 47.5797 145.173 47.5797H144.637C144.281 47.5797 144.102 47.7581 144.102 48.115V51.2331C144.102 51.5899 144.281 51.7684 144.637 51.7684H145.173ZM149.721 51.7684C150.077 51.7684 150.256 51.9468 150.256 52.3037V52.4509C150.256 52.8077 150.077 52.9862 149.721 52.9862H148.797C148.538 52.9862 148.32 52.8969 148.141 52.7185L147.7 52.2769C147.521 52.0985 147.432 51.8799 147.432 51.6212V48.115C147.432 47.9455 147.388 47.8161 147.298 47.7269C147.209 47.6288 147.08 47.5797 146.91 47.5797C146.553 47.5797 146.375 47.4013 146.375 47.0444V46.9106C146.375 46.7411 146.42 46.6117 146.509 46.5225C146.607 46.4244 146.741 46.3753 146.91 46.3753C147.08 46.3753 147.209 46.3307 147.298 46.2415C147.388 46.1433 147.432 46.0095 147.432 45.84V45.3582C147.432 45.0014 147.611 44.8229 147.967 44.8229H148.115C148.472 44.8229 148.65 45.0014 148.65 45.3582V45.84C148.65 46.1969 148.828 46.3753 149.185 46.3753H149.721C150.077 46.3753 150.256 46.5537 150.256 46.9106V47.0444C150.256 47.4013 150.077 47.5797 149.721 47.5797H149.185C148.828 47.5797 148.65 47.7581 148.65 48.115V51.2331C148.65 51.5899 148.828 51.7684 149.185 51.7684H149.721ZM155.54 49.9618C155.54 50.3186 155.361 50.497 155.005 50.497H152.944C152.587 50.497 152.408 50.6755 152.408 51.0323V51.2197C152.408 51.5766 152.587 51.755 152.944 51.755H155.005C155.361 51.755 155.54 51.9334 155.54 52.2903V52.4375C155.54 52.7944 155.361 52.9728 155.005 52.9728H152.542C152.283 52.9728 152.065 52.8791 151.886 52.6918L151.458 52.2635C151.28 52.0851 151.191 51.8665 151.191 51.6078V47.7269C151.191 47.4682 151.28 47.2496 151.458 47.0712L151.886 46.6429C152.065 46.4645 152.283 46.3753 152.542 46.3753H154.188C154.447 46.3753 154.665 46.4645 154.844 46.6429L155.272 47.0712C155.451 47.2496 155.54 47.4682 155.54 47.7269V49.9618ZM152.408 48.8912C152.408 49.248 152.587 49.4265 152.944 49.4265H153.787C154.144 49.4265 154.322 49.248 154.322 48.8912V48.115C154.322 47.7581 154.144 47.5797 153.787 47.5797H152.944C152.587 47.5797 152.408 47.7581 152.408 48.115V48.8912ZM158.227 52.4375C158.227 52.7944 158.049 52.9728 157.692 52.9728H157.545C157.188 52.9728 157.009 52.7944 157.009 52.4375V47.7403C157.009 47.4816 157.098 47.263 157.277 47.0846L157.719 46.6429C157.897 46.4645 158.116 46.3753 158.374 46.3753H158.615C158.972 46.3753 159.15 46.5537 159.15 46.9106V47.0578C159.15 47.4147 158.999 47.5931 158.695 47.5931C158.544 47.5931 158.428 47.6421 158.347 47.7403C158.267 47.8295 158.227 47.9589 158.227 48.1284V52.4375Z" fill="white"/>
<path d="M12.496 42.2853C12.496 41.718 12.307 41.2453 11.9288 40.8671C11.5506 40.489 11.0968 40.2999 10.5674 40.2999H10.1703C9.60303 40.2999 9.13032 40.489 8.75214 40.8671C8.37397 41.2453 8.18488 41.718 8.18488 42.2853V53.6872C8.18488 54.2166 7.97689 54.6704 7.5609 55.0486C7.18273 55.4268 6.71001 55.6159 6.14275 55.6159H4.83806C4.30862 55.6159 3.85481 55.4268 3.47664 55.0486C3.09847 54.6704 2.90938 54.2166 2.90938 53.6872V5.75384C2.90938 5.22439 3.09847 4.77059 3.47664 4.39242C3.85481 4.01424 4.30862 3.82516 4.83806 3.82516H15.7861C16.3534 3.82516 16.8261 4.01424 17.2043 4.39242C17.5825 4.77059 17.7716 5.22439 17.7716 5.75384V53.6872C17.7716 54.2166 17.5825 54.6704 17.2043 55.0486C16.8261 55.4268 16.3534 55.6159 15.7861 55.6159H12.1557C11.6263 55.6159 11.1535 55.4268 10.7375 55.0486C10.3594 54.6704 10.1703 54.2166 10.1703 53.6872V52.4392C10.1703 51.9098 10.2837 51.4371 10.5106 51.0211C10.7754 50.6429 11.059 50.4538 11.3615 50.4538C11.6641 50.4538 11.9288 50.2458 12.1557 49.8298C12.3826 49.4138 12.496 48.9411 12.496 48.4117V42.2853ZM33.3712 19.2546C33.8628 19.2546 34.2977 19.0655 34.6759 18.6873C35.0918 18.3092 35.2998 17.8554 35.2998 17.3259V11.0861C35.2998 10.5188 35.0918 10.0461 34.6759 9.66792C34.2977 9.28975 33.8628 9.10066 33.3712 9.10066H26.4506C25.9212 9.10066 25.4485 9.28975 25.0325 9.66792C24.6543 10.0461 24.4652 10.5188 24.4652 11.0861V25.1541C24.4652 25.7213 24.6543 26.1941 25.0325 26.5722C25.4485 26.9504 25.9212 27.1395 26.4506 27.1395H38.363C38.9303 27.1395 39.403 27.3286 39.7812 27.7067C40.1594 28.0849 40.3484 28.5387 40.3484 29.0682V40.073C40.3484 40.6402 40.235 41.2831 40.0081 42.0017C39.7812 42.6824 39.4976 43.2496 39.1572 43.7034L37.5122 46.0859C37.1718 46.5397 37.0016 47.0881 37.0016 47.731C37.0016 48.2982 37.1529 48.7898 37.4554 49.2058C38.174 50.1891 38.8358 50.6807 39.4408 50.6807C39.7056 50.6807 39.9135 50.8698 40.0648 51.248C40.2539 51.664 40.3484 52.1556 40.3484 52.7228V53.9141C40.3484 54.4435 40.1594 54.8973 39.7812 55.2755C39.403 55.6915 38.9303 55.8995 38.363 55.8995H38.2496C37.7201 55.8995 37.134 55.7293 36.4911 55.389C35.8482 55.0486 35.3755 54.6704 35.0729 54.2544L34.5057 53.517C34.241 53.0632 33.8628 52.8363 33.3712 52.8363C32.9552 52.8363 32.577 53.0632 32.2366 53.517L31.6694 54.2544C31.3669 54.6704 30.8941 55.0486 30.2512 55.389C29.6462 55.7293 29.0789 55.8995 28.5495 55.8995H27.8688C27.3015 55.8995 26.8288 55.6915 26.4506 55.2755C26.0724 54.8973 25.8834 54.4435 25.8834 53.9141V52.7228C25.8834 52.1556 25.9968 51.664 26.2237 51.248C26.4506 50.8698 26.7342 50.6807 27.0746 50.6807C27.6419 50.6807 28.2091 50.3593 28.7764 49.7164C29.3814 49.0357 29.684 48.2982 29.684 47.5041C29.684 46.9368 29.5138 46.4263 29.1735 45.9725L27.5851 43.7034C27.2826 43.2496 26.999 42.6635 26.7342 41.9449C26.5073 41.2264 26.3939 40.6024 26.3939 40.073V36.4425C26.3939 35.9131 26.583 35.4593 26.9611 35.0811C27.3771 34.6651 27.8498 34.4571 28.3793 34.4571H29.1735C29.7029 34.4571 30.1567 34.6651 30.5349 35.0811C30.9509 35.4593 31.1589 35.9131 31.1589 36.4425V38.4847C31.1589 39.0519 31.2534 39.6759 31.4425 40.3566C31.6316 40.9995 31.8774 41.5289 32.1799 41.9449C32.4446 42.3231 32.7661 42.5122 33.1443 42.5122C33.5981 42.5122 33.9951 42.2664 34.3355 41.7748L34.5057 41.6046C34.8082 41.1129 35.0729 40.5268 35.2998 39.8461C35.5267 39.1275 35.6402 38.4847 35.6402 37.9174V34.4004C35.6402 33.8331 35.4322 33.3604 35.0162 32.9822C34.638 32.6041 34.1842 32.415 33.6548 32.415H26.4506C25.9212 32.415 25.4485 32.6041 25.0325 32.9822C24.6543 33.3604 24.4652 33.8331 24.4652 34.4004V53.6872C24.4652 54.2166 24.2572 54.6704 23.8412 55.0486C23.463 55.4268 23.0092 55.6159 22.4798 55.6159H21.2318C20.7024 55.6159 20.2297 55.4268 19.8137 55.0486C19.4355 54.6704 19.2464 54.2166 19.2464 53.6872V5.81056C19.2464 5.28112 19.4355 4.82731 19.8137 4.44914C20.2297 4.03315 20.7024 3.82516 21.2318 3.82516H38.5332C39.1005 3.82516 39.5732 4.03315 39.9514 4.44914C40.3674 4.82731 40.5753 5.28112 40.5753 5.81056V22.488C40.5753 23.0174 40.3674 23.4712 39.9514 23.8494C39.5732 24.2276 39.1005 24.4166 38.5332 24.4166H29.684C29.1167 24.4166 28.6251 24.2276 28.2091 23.8494C27.8309 23.4712 27.6419 23.0174 27.6419 22.488V21.24C27.6419 20.7106 27.8309 20.2567 28.2091 19.8786C28.6251 19.4626 29.1167 19.2546 29.684 19.2546H33.3712ZM8.18488 18.1768C8.18488 18.7062 8.37397 19.16 8.75214 19.5382C9.13032 19.9164 9.60303 20.1055 10.1703 20.1055H10.5674C11.0968 20.1055 11.5506 19.9164 11.9288 19.5382C12.307 19.16 12.496 18.7062 12.496 18.1768V11.0293C12.496 10.4999 12.307 10.0461 11.9288 9.66792C11.5506 9.25193 11.0968 9.04393 10.5674 9.04393H10.1703C9.60303 9.04393 9.13032 9.25193 8.75214 9.66792C8.37397 10.0461 8.18488 10.4999 8.18488 11.0293V18.1768ZM10.5674 35.0811C11.0968 35.0811 11.5506 34.892 11.9288 34.5138C12.307 34.0979 12.496 33.6251 12.496 33.0957V27.3097C12.496 26.7802 12.307 26.3264 11.9288 25.9482C11.5506 25.5322 11.0968 25.3243 10.5674 25.3243H10.1703C9.60303 25.3243 9.13032 25.5322 8.75214 25.9482C8.37397 26.3264 8.18488 26.7802 8.18488 27.3097V33.0957C8.18488 33.6251 8.37397 34.0979 8.75214 34.5138C9.13032 34.892 9.60303 35.0811 10.1703 35.0811H10.5674ZM91.325 10.3486C91.325 10.8403 91.2305 11.3886 91.0414 11.9937C90.8523 12.5988 90.6065 13.0715 90.304 13.4118L86.5601 18.5739C86.2953 18.8764 86.163 19.2546 86.163 19.7084C86.163 20.2378 86.3521 20.7295 86.7302 21.1833L87.9782 22.4312C88.3186 22.7716 88.6967 23.0552 89.1127 23.2821C89.5665 23.509 89.9447 23.6225 90.2472 23.6225C90.5498 23.6225 90.7956 23.7927 90.9847 24.133C91.1738 24.4734 91.2683 24.8704 91.2683 25.3243V27.0828C91.2683 27.5744 91.0981 27.9904 90.7578 28.3307C90.4552 28.6333 90.0582 28.7845 89.5665 28.7845H88.6022C88.1484 28.7845 87.6379 28.6711 87.0706 28.4442C86.5033 28.2173 86.0495 27.9336 85.7092 27.5933L83.6103 25.4377C83.3078 25.1352 82.9674 24.9839 82.5893 24.9839C82.1355 24.9839 81.7573 25.1919 81.4547 25.6079L80.15 27.4231C79.8475 27.8013 79.4315 28.1227 78.9021 28.3875C78.3726 28.6522 77.881 28.7845 77.4272 28.7845H75.9523C75.4985 28.7845 75.1014 28.6333 74.7611 28.3307C74.4207 27.9904 74.2506 27.5744 74.2506 27.0828V25.3243C74.2506 24.8704 74.364 24.4734 74.5909 24.133C74.8178 23.7927 75.0825 23.6225 75.3851 23.6225C75.7254 23.6225 76.1036 23.4901 76.5196 23.2254C76.9356 22.9607 77.2759 22.6392 77.5407 22.2611L77.8243 21.9207C78.1268 21.5047 78.2781 21.0698 78.2781 20.616C78.2781 20.0866 78.1268 19.7273 77.8243 19.5382C77.5217 19.2357 77.1436 18.9899 76.6898 18.8008C76.2738 18.6117 75.8956 18.5172 75.5553 18.5172C75.1771 18.5172 74.8556 18.347 74.5909 18.0066C74.364 17.6663 74.2506 17.2692 74.2506 16.8154V15.0569C74.2506 14.5653 74.4207 14.1682 74.7611 13.8656C75.1014 13.5253 75.4985 13.3551 75.9523 13.3551H77.4272C77.9188 13.3551 78.4483 13.4686 79.0155 13.6955C79.5828 13.9224 80.0177 14.206 80.3202 14.5463L80.774 15.0001C81.0766 15.3405 81.4358 15.5107 81.8518 15.5107C82.3056 15.5107 82.6649 15.2838 82.9296 14.83L85.1419 11.8802C85.4066 11.4264 85.6146 11.0861 85.7659 10.8592C85.955 10.6323 86.0684 10.481 86.1063 10.4054H80.0366C79.545 10.4054 79.0155 10.2919 78.4483 10.065C77.881 9.8381 77.4083 9.57338 77.0301 9.27084L75.4985 7.90942C75.1204 7.60688 74.7989 7.19089 74.5342 6.66145C74.3073 6.09419 74.1938 5.58366 74.1938 5.12985V4.61932C74.1938 4.16551 74.364 3.76843 74.7044 3.42808C75.0447 3.08772 75.4418 2.91754 75.8956 2.91754H77.6541C78.1457 2.91754 78.5428 3.03099 78.8454 3.2579C79.1857 3.4848 79.3559 3.74952 79.3559 4.05206C79.3559 4.39241 79.5261 4.67604 79.8664 4.90295C80.2068 5.12985 80.6039 5.2433 81.0577 5.2433H89.8502C90.2662 5.2433 90.6065 5.41348 90.8712 5.75384C91.1738 6.05637 91.325 6.45345 91.325 6.94508V10.3486ZM57.6866 20.5026L57.4597 19.8786L54.6801 13.9791C54.5667 13.7522 54.51 13.5442 54.51 13.3551C54.51 13.0904 54.6045 12.8824 54.7936 12.7311C55.0205 12.542 55.3041 12.4475 55.6445 12.4475H57.9702C58.424 12.4475 58.8779 12.5988 59.3317 12.9013C59.8233 13.2038 60.1636 13.5631 60.3527 13.9791L60.7498 14.7732C60.9389 15.1892 61.1658 15.5485 61.4305 15.851C61.6952 16.1536 61.9032 16.3048 62.0545 16.3048C62.2436 16.3048 62.4705 16.1725 62.7352 15.9078C63.0377 15.6052 63.3025 15.246 63.5294 14.83L65.8551 10.689C65.9686 10.4621 66.0253 10.2352 66.0253 10.0083C66.0253 9.78137 65.9308 9.59229 65.7417 9.44102C65.5526 9.28975 65.3068 9.21411 65.0042 9.21411H54.51C54.0562 9.21411 53.6591 9.06284 53.3187 8.7603C52.9784 8.41995 52.8082 8.00396 52.8082 7.51234V5.75384C52.8082 5.30003 52.9784 4.90295 53.3187 4.56259C53.6591 4.22224 54.0562 4.05206 54.51 4.05206H71.0739C71.5277 4.05206 71.9248 4.22224 72.2652 4.56259C72.6055 4.90295 72.7757 5.30003 72.7757 5.75384V7.51234C72.7757 8.00396 72.7001 8.57122 72.5488 9.21411C72.3975 9.81919 72.2084 10.3297 71.9815 10.7457L67.1031 19.9353C66.914 20.3513 66.5737 20.7106 66.082 21.0131C65.5904 21.3156 65.0988 21.4669 64.6072 21.4669H58.1971L57.6866 20.5026ZM60.7498 48.8088C60.9767 48.8088 61.1658 48.6386 61.3171 48.2982C61.4683 47.9579 61.544 47.5608 61.544 47.107V29.2951C61.544 28.8034 61.3738 28.4064 61.0334 28.1038C60.7309 27.7635 60.3338 27.5933 59.8422 27.5933H54.51C54.0183 27.5933 53.6023 27.4231 53.262 27.0828C52.9595 26.7424 52.8082 26.3453 52.8082 25.8915V24.133C52.8082 23.6414 52.9595 23.2443 53.262 22.9418C53.6023 22.6014 54.0183 22.4312 54.51 22.4312H71.3008C71.7924 22.4312 72.1895 22.6014 72.4921 22.9418C72.8324 23.2443 73.0026 23.6414 73.0026 24.133V43.1929C73.0026 43.6467 72.8324 44.0438 72.4921 44.3841C72.1895 44.7245 71.7924 44.8947 71.3008 44.8947H69.5423C69.0885 44.8947 68.6914 44.7245 68.3511 44.3841C68.0107 44.0438 67.8405 43.6467 67.8405 43.1929V29.2951C67.8405 28.1605 67.6515 27.5933 67.2733 27.5933C67.122 27.5933 66.9896 27.7635 66.8762 28.1038C66.7627 28.4442 66.706 28.8413 66.706 29.2951V48.128C66.706 48.5819 66.5926 49.0924 66.3657 49.6596C66.1388 50.2269 65.8551 50.6807 65.5148 51.0211L63.7563 52.7796C63.4537 53.0821 63.0567 53.3468 62.565 53.5737C62.0734 53.8384 61.6385 53.9708 61.2603 53.9708C60.8822 53.9708 60.5607 53.8006 60.296 53.4603C60.0691 53.1199 59.9556 52.7228 59.9556 52.269V50.5105C59.9556 50.0189 60.0313 49.6218 60.1825 49.3193C60.3338 48.9789 60.5229 48.8088 60.7498 48.8088ZM56.4954 52.7796C56.1928 53.0821 55.7957 53.3468 55.3041 53.5737C54.8125 53.8384 54.3965 53.9708 54.0562 53.9708C53.7158 53.9708 53.4133 53.8006 53.1485 53.4603C52.9216 53.1199 52.8082 52.7228 52.8082 52.269V50.5105C52.8082 50.0189 52.8838 49.6218 53.0351 49.3193C53.1864 48.9789 53.3565 48.8088 53.5456 48.8088C53.7347 48.8088 53.9049 48.6386 54.0562 48.2982C54.2074 47.9579 54.2831 47.5608 54.2831 47.107V30.543C54.2831 30.0892 54.4532 29.6921 54.7936 29.3518C55.1339 29.0114 55.531 28.8413 55.9848 28.8413H57.7433C58.235 28.8413 58.632 29.0114 58.9346 29.3518C59.2749 29.6921 59.4451 30.0892 59.4451 30.543V48.128C59.4451 48.5819 59.3317 49.0924 59.1048 49.6596C58.8779 50.2269 58.5942 50.6807 58.2539 51.0211L56.4954 52.7796ZM80.15 30.0892C80.6417 30.0892 81.0388 30.2216 81.3413 30.4863C81.6816 30.751 81.8518 31.0725 81.8518 31.4506C81.8518 31.8666 82.022 32.207 82.3624 32.4717C82.7027 32.6986 83.0998 32.8121 83.5536 32.8121H88.9426C89.3964 32.8121 89.7934 32.9066 90.1338 33.0957C90.4742 33.2848 90.6443 33.5117 90.6443 33.7764V48.1848C90.6443 48.6386 90.512 49.1491 90.2472 49.7164C90.0203 50.2836 89.7556 50.7374 89.4531 51.0778L87.6946 52.8363C87.3542 53.1388 86.8815 53.4036 86.2764 53.6305C85.7092 53.8952 85.1986 54.0275 84.7448 54.0275H84.5179C84.0263 54.0275 83.6103 53.8574 83.27 53.517C82.9674 53.1766 82.8162 52.7796 82.8162 52.3258V50.5673C82.8162 50.0756 82.9296 49.6786 83.1565 49.376C83.4212 49.0357 83.7427 48.8655 84.1209 48.8655C84.499 48.8655 84.8016 48.6953 85.0285 48.355C85.2932 48.0146 85.4255 47.6175 85.4255 47.1637V39.6759C85.4255 39.2221 85.2554 38.825 84.915 38.4847C84.6125 38.1443 84.2154 37.9741 83.7238 37.9741H83.5536C83.0998 37.9741 82.7027 38.1443 82.3624 38.4847C82.022 38.825 81.8518 39.2221 81.8518 39.6759V48.1848C81.8518 48.6386 81.7384 49.1491 81.5115 49.7164C81.2846 50.2836 81.0009 50.7374 80.6606 51.0778L78.9588 52.7796C78.6184 53.1199 78.1646 53.4036 77.5974 53.6305C77.0301 53.8952 76.5007 54.0275 76.0091 54.0275H75.8956C75.4418 54.0275 75.0447 53.8574 74.7044 53.517C74.364 53.1766 74.1938 52.7796 74.1938 52.3258V50.5673C74.1938 50.0756 74.3073 49.6786 74.5342 49.376C74.7989 49.0357 75.1014 48.8655 75.4418 48.8655C75.7822 48.8655 76.0658 48.6953 76.2927 48.355C76.5574 48.0146 76.6898 47.6175 76.6898 47.1637V39.6759C76.6898 39.2221 76.5574 38.825 76.2927 38.4847C76.0658 38.1443 75.7822 37.9741 75.4418 37.9741C75.1014 37.9741 74.7989 37.8229 74.5342 37.5203C74.3073 37.18 74.1938 36.764 74.1938 36.2723V34.5138C74.1938 34.06 74.3073 33.663 74.5342 33.3226C74.7989 32.9822 75.1014 32.8121 75.4418 32.8121C75.7822 32.8121 76.0658 32.6986 76.2927 32.4717C76.5574 32.207 76.6898 31.8666 76.6898 31.4506C76.6898 31.0725 76.8599 30.751 77.2003 30.4863C77.5407 30.2216 77.9377 30.0892 78.3915 30.0892H80.15ZM211.174 9.78137C211.666 9.78137 212.063 9.72464 212.365 9.61119C212.705 9.49774 212.876 9.34647 212.876 9.15739C212.876 8.9683 212.705 8.81703 212.365 8.70358C212.025 8.55231 211.628 8.47668 211.174 8.47668H208.281C207.789 8.47668 207.373 8.32541 207.033 8.02287C206.73 7.68252 206.579 7.26653 206.579 6.7749V6.09419C206.579 5.60257 206.73 5.20549 207.033 4.90295C207.373 4.56259 207.789 4.39242 208.281 4.39242H211.174C211.628 4.39242 212.025 4.31678 212.365 4.16551C212.705 4.01424 212.876 3.84407 212.876 3.65498C212.876 3.46589 213.027 3.31462 213.329 3.20117C213.67 3.0499 214.086 2.97427 214.577 2.97427H216.279C216.733 2.97427 217.13 3.0499 217.47 3.20117C217.811 3.31462 217.981 3.46589 217.981 3.65498C217.981 3.84407 218.132 4.01424 218.435 4.16551C218.775 4.31678 219.191 4.39242 219.683 4.39242H222.576C223.03 4.39242 223.427 4.56259 223.767 4.90295C224.107 5.20549 224.278 5.60257 224.278 6.09419V6.7749C224.278 7.26653 224.107 7.68252 223.767 8.02287C223.427 8.32541 223.03 8.47668 222.576 8.47668H219.683C219.191 8.47668 218.775 8.55231 218.435 8.70358C218.132 8.81703 217.981 8.9683 217.981 9.15739C217.981 9.34647 218.132 9.49774 218.435 9.61119C218.775 9.72464 219.191 9.78137 219.683 9.78137H222.576C223.03 9.78137 223.427 9.95155 223.767 10.2919C224.107 10.5944 224.278 10.9915 224.278 11.4831V12.1639C224.278 12.6555 224.107 13.0715 223.767 13.4118C223.427 13.7144 223.03 13.8656 222.576 13.8656H208.281C207.789 13.8656 207.373 13.7144 207.033 13.4118C206.73 13.0715 206.579 12.6555 206.579 12.1639V11.4831C206.579 10.9915 206.73 10.5944 207.033 10.2919C207.373 9.95155 207.789 9.78137 208.281 9.78137H211.174ZM239.707 3.2579C240.199 3.2579 240.596 3.42807 240.898 3.76843C241.239 4.10878 241.409 4.50587 241.409 4.95967V7.51234C241.409 8.00396 241.466 8.41995 241.579 8.7603C241.692 9.06284 241.844 9.21411 242.033 9.21411C242.222 9.21411 242.373 9.38429 242.487 9.72464C242.6 10.0272 242.657 10.4243 242.657 10.9159V11.3697C242.657 11.8613 242.543 12.2773 242.316 12.6177C242.089 12.9202 241.825 13.0715 241.522 13.0715C241.182 13.0715 240.766 12.9769 240.274 12.7878C239.82 12.5988 239.423 12.3529 239.083 12.0504L238.175 11.313C237.797 10.9726 237.476 10.5944 237.211 10.1785C236.946 9.72464 236.814 9.28975 236.814 8.87376C236.814 8.49559 236.644 8.17414 236.303 7.90942C236.001 7.6447 235.604 7.51234 235.112 7.51234H232.957C232.465 7.51234 232.049 7.6447 231.709 7.90942C231.406 8.17414 231.255 8.51449 231.255 8.93048C231.255 9.34647 231.122 9.78137 230.858 10.2352C230.593 10.6512 230.272 11.0293 229.893 11.3697L228.929 12.1071C228.551 12.3719 228.116 12.5988 227.624 12.7878C227.171 12.9769 226.792 13.0715 226.49 13.0715C226.187 13.0715 225.923 12.9202 225.696 12.6177C225.507 12.2773 225.412 11.8613 225.412 11.3697V10.9159C225.412 9.78137 225.601 9.21411 225.979 9.21411C226.131 9.21411 226.263 9.04393 226.376 8.70358C226.49 8.36322 226.547 7.96614 226.547 7.51234V4.95967C226.547 4.50587 226.698 4.10878 227 3.76843C227.341 3.42807 227.757 3.2579 228.248 3.2579H239.707ZM226.717 25.9482C227.057 25.9482 227.416 25.9104 227.795 25.8348C228.211 25.7592 228.513 25.6646 228.702 25.5512C228.816 25.4755 228.872 25.381 228.872 25.2675C228.872 24.965 228.57 24.6435 227.965 24.3032L227.057 23.7927C226.641 23.5658 226.282 23.2065 225.979 22.7149C225.677 22.2232 225.526 21.7694 225.526 21.3534C225.526 20.8996 225.696 20.5215 226.036 20.2189C226.376 19.8786 226.774 19.7084 227.227 19.7084H229.099C229.591 19.7084 229.988 19.784 230.291 19.9353C230.631 20.0866 230.801 20.2567 230.801 20.4458C230.801 20.6727 230.933 20.9375 231.198 21.24C231.463 21.5425 231.784 21.7883 232.162 21.9774C232.465 22.1287 232.862 22.2043 233.354 22.2043C233.959 22.2043 234.507 22.072 234.999 21.8073L235.396 21.5803C235.812 21.3156 236.152 20.9942 236.417 20.616C236.719 20.2378 236.871 19.8975 236.871 19.5949C236.871 19.2924 236.701 19.0466 236.36 18.8575C236.02 18.6684 235.623 18.5739 235.169 18.5739H227.227C226.774 18.5739 226.376 18.4037 226.036 18.0633C225.696 17.723 225.526 17.3259 225.526 16.8721V16.3616C225.526 15.8699 225.696 15.4729 226.036 15.1703C226.376 14.83 226.774 14.6598 227.227 14.6598H240.444C240.898 14.6598 241.295 14.83 241.636 15.1703C241.976 15.4729 242.146 15.8699 242.146 16.3616V20.6727C242.146 21.1644 242.014 21.6749 241.749 22.2043C241.484 22.696 241.144 23.0552 240.728 23.2821L239.48 24.0763C238.951 24.4166 238.686 24.7381 238.686 25.0406C238.686 25.2297 238.78 25.381 238.97 25.4944C239.65 25.797 240.426 25.9482 241.295 25.9482C241.673 25.9482 241.995 26.1184 242.26 26.4588C242.524 26.7991 242.657 27.1962 242.657 27.65V28.6711C242.657 29.1627 242.487 29.5787 242.146 29.919C241.806 30.2216 241.409 30.3729 240.955 30.3729H240.671C240.218 30.3729 239.669 30.2972 239.026 30.146C238.421 29.9947 237.911 29.8056 237.495 29.5787L235.396 28.3875C235.055 28.1984 234.621 28.1038 234.091 28.1038C233.448 28.1038 232.919 28.2362 232.503 28.5009L230.914 29.4652C230.499 29.73 229.988 29.9569 229.383 30.146C228.778 30.2972 228.248 30.3729 227.795 30.3729H227.114C226.622 30.3729 226.206 30.2216 225.866 29.919C225.563 29.5787 225.412 29.1627 225.412 28.6711V27.65C225.412 27.1962 225.526 26.7991 225.752 26.4588C226.017 26.1184 226.339 25.9482 226.717 25.9482ZM205.558 27.9904C205.558 27.4987 205.596 27.1017 205.671 26.7991C205.785 26.4588 205.917 26.2886 206.069 26.2886C206.22 26.2886 206.333 26.1184 206.409 25.7781C206.522 25.4377 206.579 25.0406 206.579 24.5868V16.5885C206.579 16.0968 206.73 15.6998 207.033 15.3972C207.373 15.0569 207.789 14.8867 208.281 14.8867H222.576C223.03 14.8867 223.427 15.0569 223.767 15.3972C224.107 15.6998 224.278 16.0968 224.278 16.5885V21.0698C224.278 21.5614 224.164 22.0909 223.937 22.6581C223.71 23.2254 223.446 23.6981 223.143 24.0763L222.803 24.4166C222.5 24.757 222.065 25.0595 221.498 25.3243C220.969 25.5512 220.458 25.6646 219.966 25.6646H213.216C212.724 25.6646 212.308 25.7592 211.968 25.9482C211.666 26.0995 211.514 26.2886 211.514 26.5155C211.514 26.7424 211.382 27.026 211.117 27.3664C210.852 27.7067 210.531 28.0471 210.153 28.3875L208.905 29.4085C208.527 29.7111 208.111 29.9569 207.657 30.146C207.241 30.335 206.882 30.4296 206.579 30.4296C206.277 30.4296 206.031 30.2783 205.842 29.9758C205.653 29.6354 205.558 29.2194 205.558 28.7278V27.9904ZM211.514 20.0488C211.514 20.5026 211.59 20.8996 211.741 21.24C211.93 21.5803 212.157 21.7505 212.422 21.7505C212.687 21.7505 212.895 21.5803 213.046 21.24C213.235 20.8996 213.329 20.5026 213.329 20.0488V19.7651C213.329 19.3113 213.235 18.9142 213.046 18.5739C212.895 18.2335 212.687 18.0633 212.422 18.0633C212.157 18.0633 211.93 18.2335 211.741 18.5739C211.59 18.9142 211.514 19.3113 211.514 19.7651V20.0488ZM219.966 19.7651C219.966 19.3113 219.872 18.9142 219.683 18.5739C219.494 18.2335 219.248 18.0633 218.945 18.0633C218.643 18.0633 218.378 18.2335 218.151 18.5739C217.962 18.9142 217.868 19.3113 217.868 19.7651V20.0488C217.868 20.5026 217.962 20.8996 218.151 21.24C218.378 21.5803 218.643 21.7505 218.945 21.7505C219.248 21.7505 219.494 21.5803 219.683 21.24C219.872 20.8996 219.966 20.5026 219.966 20.0488V19.7651ZM241.295 35.8185C240.879 35.8185 240.52 35.9887 240.218 36.3291C239.953 36.6316 239.82 37.0287 239.82 37.5203V46.1994C239.82 46.691 239.953 47.107 240.218 47.4473C240.52 47.7499 240.879 47.9011 241.295 47.9011C241.711 47.9011 242.052 48.0713 242.316 48.4117C242.619 48.752 242.77 49.1491 242.77 49.6029V50.7374C242.77 51.2291 242.619 51.6261 242.316 51.9287C242.052 52.269 241.711 52.4392 241.295 52.4392C240.879 52.4392 240.52 52.5148 240.218 52.6661C239.953 52.8174 239.82 53.0065 239.82 53.2334C239.82 53.4225 239.65 53.5926 239.31 53.7439C239.007 53.8952 238.61 53.9708 238.119 53.9708H236.417C235.963 53.9708 235.566 53.8952 235.226 53.7439C234.885 53.5926 234.715 53.4225 234.715 53.2334C234.715 53.0065 234.545 52.8174 234.205 52.6661C233.902 52.5148 233.505 52.4392 233.013 52.4392H207.317C206.863 52.4392 206.466 52.269 206.125 51.9287C205.785 51.6261 205.615 51.2291 205.615 50.7374V49.6029C205.615 49.1491 205.728 48.752 205.955 48.4117C206.22 48.0713 206.503 47.9011 206.806 47.9011C207.146 47.9011 207.43 47.7499 207.657 47.4473C207.884 47.107 207.997 46.691 207.997 46.1994V37.5203C207.997 37.0287 207.884 36.6316 207.657 36.3291C207.43 35.9887 207.146 35.8185 206.806 35.8185C206.503 35.8185 206.22 35.6484 205.955 35.308C205.728 34.9676 205.615 34.5706 205.615 34.1168V32.9822C205.615 32.4906 205.785 32.0935 206.125 31.791C206.466 31.4506 206.863 31.2805 207.317 31.2805H241.068C241.522 31.2805 241.919 31.4506 242.26 31.791C242.6 32.0935 242.77 32.4906 242.77 32.9822V34.1168C242.77 34.5706 242.619 34.9676 242.316 35.308C242.052 35.6484 241.711 35.8185 241.295 35.8185ZM234.715 36.4425C234.715 36.2534 234.545 36.1022 234.205 35.9887C233.902 35.8753 233.505 35.8185 233.013 35.8185H214.804C214.313 35.8185 213.897 35.8753 213.556 35.9887C213.254 36.1022 213.103 36.2534 213.103 36.4425C213.103 36.6316 213.254 36.7829 213.556 36.8963C213.897 37.0098 214.313 37.0665 214.804 37.0665H233.013C233.505 37.0665 233.902 37.0098 234.205 36.8963C234.545 36.7829 234.715 36.6316 234.715 36.4425ZM234.715 41.8315C234.715 41.6424 234.545 41.4722 234.205 41.3209C233.864 41.1319 233.467 41.0373 233.013 41.0373H214.804C214.351 41.0373 213.953 41.1319 213.613 41.3209C213.273 41.4722 213.103 41.6424 213.103 41.8315C213.103 42.0584 213.273 42.2475 213.613 42.3987C213.953 42.55 214.351 42.6256 214.804 42.6256H233.013C233.505 42.6256 233.902 42.55 234.205 42.3987C234.545 42.2475 234.715 42.0584 234.715 41.8315ZM233.013 47.9011C233.505 47.9011 233.902 47.8444 234.205 47.731C234.545 47.6175 234.715 47.4662 234.715 47.2772C234.715 47.0881 234.545 46.9368 234.205 46.8234C233.902 46.6721 233.505 46.5964 233.013 46.5964H214.804C214.351 46.5964 213.953 46.6721 213.613 46.8234C213.273 46.9368 213.103 47.0881 213.103 47.2772C213.103 47.4662 213.254 47.6175 213.556 47.731C213.897 47.8444 214.313 47.9011 214.804 47.9011H233.013Z" fill="white"/>
</svg>
